<svg t="1704794692900" class="icon" viewBox="0 0 1024 1024" version="1.1" xmlns="http://www.w3.org/2000/svg" p-id="5046" width="16" height="16"><path d="M230.8 152.3h562.4c43.3 0 78.5 35.1 78.5 78.5v562.4c0 43.3-35.1 78.5-78.5 78.5H230.8c-43.3 0-78.5-35.1-78.5-78.5V230.8c0-43.4 35.1-78.5 78.5-78.5z m0 52.3c-14.4 0-26.2 11.7-26.2 26.2v562.4c0 14.4 11.7 26.2 26.2 26.2h562.4c14.4 0 26.2-11.7 26.2-26.2V230.8c0-14.4-11.7-26.2-26.2-26.2H230.8z" p-id="5047"></path><path d="M556.1 355c-6.9-6.4-16.8-8.6-25.8-5.7-9 2.9-15.7 10.4-17.6 19.7l-52.3 235.4c-2.2 9.2 0.7 18.9 7.6 25.3 6.9 6.4 16.8 8.6 25.8 5.7 9-2.9 15.7-10.4 17.6-19.7l52.3-235.4c2.2-9.2-0.7-18.8-7.6-25.3zM768.4 489.8l-78.5-104.6c-8.7-11.6-25.1-13.9-36.6-5.2-11.6 8.7-13.9 25.1-5.2 36.6l66.7 88.9-66.8 88.9c-8.7 11.6-6.3 28 5.2 36.6 11.6 8.7 28 6.3 36.6-5.2l78.5-104.6c7.1-9.3 7.1-22.1 0.1-31.4zM370.7 379.9c-11.6-8.7-28-6.3-36.6 5.2l-78.5 104.6c-7 9.3-7 22.1 0 31.4l78.5 104.6c8.7 11.6 25.1 13.9 36.6 5.2 11.6-8.7 13.9-25.1 5.2-36.6l-66.7-88.9 66.7-88.9c8.7-11.5 6.4-27.9-5.2-36.6z" fill="#C8171E" p-id="5048"></path></svg>